PathFileType	4	(X/Y/Z)	C:\Users\dbl\Desktop\LZH\BX\bx_y_5_901.trc
DataRate	CameraRate	NumFrames	NumMarkers	Units	OrigDataRate	OrigDataStartFrame	OrigNumFrames
50.00	50.00	      4	43	mm	50.00	586	      1562
Frame#	Time	Top.Head			R.Acromium			L.Acromium			Sternum			R.ASIS			L.ASIS			V.Sacral			R.Thigh.Upper			R.Thigh.Front			R.Thigh.Rear			R.Knee.Lat			R.Knee.Med			R.Shank.Upper			R.Shank.Front			R.Shank.Rear			R.Ankle.Lat			R.Midfoot.Lat			R.Toe.Lat			R.Toe.Tip			R.Toe.Med			R.Ankle.Med			R.Midfoot.Sup			R.Heel			L.Thigh.Upper			L.Thigh.Front			L.Thigh.Rear			L.Knee.Lat			L.Knee.Med			L.Shank.Upper			L.Shank.Front			L.Shank.Rear			L.Ankle.Lat			L.Midfoot.Lat			L.Toe.Lat			L.Toe.Tip			L.Toe.Med			L.Ankle.Med			L.Midfoot.Sup			L.Heel			origin1 front left			origin2 front right			origin 3 back right			origin 4 back leftt			
		X1	Y1	Z1	X2	Y2	Z2	X3	Y3	Z3	X4	Y4	Z4	X5	Y5	Z5	X6	Y6	Z6	X7	Y7	Z7	X8	Y8	Z8	X9	Y9	Z9	X10	Y10	Z10	X11	Y11	Z11	X12	Y12	Z12	X13	Y13	Z13	X14	Y14	Z14	X15	Y15	Z15	X16	Y16	Z16	X17	Y17	Z17	X18	Y18	Z18	X19	Y19	Z19	X20	Y20	Z20	X21	Y21	Z21	X22	Y22	Z22	X23	Y23	Z23	X24	Y24	Z24	X25	Y25	Z25	X26	Y26	Z26	X27	Y27	Z27	X28	Y28	Z28	X29	Y29	Z29	X30	Y30	Z30	X31	Y31	Z31	X32	Y32	Z32	X33	Y33	Z33	X34	Y34	Z34	X35	Y35	Z35	X36	Y36	Z36	X37	Y37	Z37	X38	Y38	Z38	X39	Y39	Z39	X40	Y40	Z40	X41	Y41	Z41	X42	Y42	Z42	X43	Y43	Z43	

586	11.700	-631.35022	269.07288	1842.12561	-615.32489	76.49485	1541.06885	-590.55219	467.92038	1535.39343	-510.51321	277.12863	1400.20337	-548.55786	149.23895	1054.62158	-542.84369	402.43369	1067.27197	-754.17834	263.57993	1024.53210	-581.54669	99.46394	892.69293	-537.16199	159.07779	842.95050	-634.81763	93.05300	749.26495	-653.09332	127.81565	607.88135	-641.22229	235.68192	561.59015	-691.72321	126.28746	541.29785	-608.07507	177.27731	545.76453	-729.40869	129.98587	474.17538	-686.44336	146.84111	214.39539	-614.10046	81.07708	166.55853	-568.94855	55.94365	163.46288	-490.66376	97.76011	163.63654	-529.84290	148.41702	165.92586	-632.97217	219.89714	218.76076	-591.83331	190.56210	169.02115	-715.79553	215.48991	169.44377	-574.04462	440.86234	879.88586	-532.13367	378.80551	835.54449	-626.33258	445.43036	750.98096	-659.36798	419.05182	627.67126	-628.30658	312.46036	578.32263	-667.52301	415.02582	563.11676	-615.81720	372.24603	541.52515	-718.82928	422.27176	511.02344	-679.41687	416.49237	211.88318	-583.30267	468.55844	165.53697	-543.41034	476.99142	160.44818	-479.59540	428.09113	166.51823	-523.88605	386.57785	177.32718	-644.60211	328.68411	207.40453	-595.74597	349.59207	167.56256	-733.36194	346.55710	164.55106	-443.46930	449.17789	147.07089	-450.60336	75.35359	144.56618	-806.16150	82.42884	142.66368	-799.69519	457.70111	145.30037	
587	11.720	-626.31653	268.96240	1842.44824	-613.26965	76.43224	1540.97180	-588.66797	467.78516	1535.33813	-509.74142	276.98874	1399.42554	-549.92151	149.59984	1054.54785	-544.24042	402.50912	1067.20044	-755.65649	263.70093	1024.60376	-582.95288	99.63709	892.71320	-538.38928	159.11565	842.94830	-636.20111	93.17262	749.21985	-654.14679	127.87435	607.83575	-641.89636	235.64952	561.42377	-692.51514	126.33057	541.18103	-608.78540	177.20943	545.74304	-730.02167	130.07071	473.98251	-686.50531	146.87123	214.31050	-614.13000	81.02786	166.54964	-568.96985	55.93840	163.45180	-490.66708	97.77175	163.63907	-529.85693	148.40363	165.97038	-633.12091	219.81070	218.70802	-591.86249	190.57542	169.04453	-715.81573	215.47424	169.42673	-575.47351	441.08420	879.96002	-533.42078	379.10315	835.68384	-627.51215	445.43805	750.77789	-660.39624	419.21344	627.58728	-629.17969	312.61221	578.30792	-668.40826	415.21280	563.06848	-616.61987	372.43439	541.60742	-719.57379	422.39178	510.86331	-679.57550	416.56516	211.90428	-583.29865	468.57339	165.54237	-543.41925	477.00766	160.43896	-479.62778	428.11288	166.56042	-523.90100	386.61118	177.33939	-644.65863	328.69196	207.47379	-595.76801	349.68085	167.59137	-733.36615	346.58783	164.58044	-443.47070	449.17734	147.07706	-450.60196	75.34884	144.56065	-806.18097	82.43975	142.66890	-799.67969	457.71341	145.29886	
588	11.740	-620.66461	268.85150	1842.75793	-611.05908	76.38155	1540.85339	-586.61816	467.63947	1535.23291	-508.88641	276.86127	1398.57898	-551.44855	149.94087	1054.46973	-545.74384	402.53214	1067.09009	-757.22186	263.78873	1024.37634	-584.50214	99.79557	892.74579	-539.75726	159.12938	842.96320	-637.68091	93.29602	749.17255	-655.27020	127.92798	607.79370	-642.63806	235.61662	561.28290	-693.36957	126.37901	541.06372	-609.55859	177.13089	545.72101	-730.67847	130.14017	473.77362	-686.56219	146.89545	214.22644	-614.16144	80.97533	166.54109	-568.99188	55.93203	163.43387	-490.67044	97.78146	163.64088	-529.87457	148.38927	166.01936	-633.24652	219.71057	218.68539	-591.88361	190.59526	169.08563	-715.83881	215.45749	169.41028	-577.03748	441.29059	880.03290	-534.84583	379.38968	835.84198	-628.96600	445.63895	750.71454	-661.54254	419.35089	627.49829	-630.13696	312.78323	578.29199	-669.38281	415.40155	563.01080	-617.51111	372.63101	541.68591	-720.39807	422.50204	510.67529	-679.76001	416.66263	211.92087	-583.29517	468.59076	165.54778	-543.42828	477.02521	160.42888	-479.66992	428.13107	166.61200	-523.92346	386.65836	177.35567	-644.74329	328.70444	207.53838	-595.77747	349.76624	167.63547	-733.37231	346.62137	164.61139	-443.47647	449.17398	147.07899	-450.59805	75.34277	144.55884	-806.20001	82.45614	142.67326	-799.66669	457.72601	145.29739	
589	11.760	-614.30408	268.74655	1843.03455	-608.69067	76.34671	1540.71265	-584.40424	467.48291	1535.06702	-507.94354	276.74854	1397.65503	-553.15698	150.24060	1054.40027	-547.35999	402.49005	1066.94702	-758.87311	263.84760	1023.86108	-586.19794	99.93433	892.79468	-541.28290	159.12120	842.99670	-639.25970	93.41528	749.12775	-656.46027	127.97088	607.75623	-643.45520	235.57936	561.16882	-694.28644	126.42910	540.94891	-610.39954	177.04099	545.70508	-731.38196	130.19044	473.55051	-686.61133	146.90633	214.14986	-614.19385	80.92307	166.53346	-569.01117	55.92766	163.40918	-490.67535	97.78921	163.64207	-529.89471	148.37488	166.06918	-633.35175	219.59219	218.69260	-591.88623	190.62349	169.15315	-715.86230	215.43857	169.39346	-578.73877	441.48047	880.10486	-536.42279	379.65540	836.00665	-630.69525	446.03394	750.79553	-662.81055	419.45911	627.40277	-631.18408	312.96854	578.27161	-670.44934	415.58917	562.94733	-618.49298	372.83310	541.75745	-721.30518	422.60098	510.45877	-679.96124	416.78461	211.92577	-583.29352	468.61099	165.55093	-543.43665	477.04248	160.41812	-479.72263	428.14456	166.67203	-523.95752	386.72171	177.38461	-644.85059	328.72256	207.60272	-595.77448	349.84750	167.69884	-733.38086	346.65485	164.64136	-443.48566	449.16830	147.07655	-450.59232	75.33624	144.56006	-806.21649	82.47600	142.67693	-799.65741	457.73663	145.29539	
